<mxfile host="app.diagrams.net" agent="Mozilla/5.0 (Windows NT 10.0; Win64; x64) AppleWebKit/537.36 (KHTML, like Gecko) Chrome/128.0.0.0 Safari/537.36" version="24.7.10">
  <diagram name="Página-1" id="nxUQSbwl1u7Zh3K72qwO">
    <mxGraphModel dx="1941" dy="1603" grid="1" gridSize="10" guides="1" tooltips="1" connect="1" arrows="1" fold="1" page="1" pageScale="1" pageWidth="827" pageHeight="1169" math="0" shadow="0">
      <root>
        <mxCell id="0" />
        <mxCell id="1" parent="0" />
        <mxCell id="Cv7cW8RBHG4uCMVtWFDh-1" value="Fecha de nacimiento" style="ellipse;whiteSpace=wrap;html=1;" parent="1" vertex="1">
          <mxGeometry x="140" y="150" width="90" height="60" as="geometry" />
        </mxCell>
        <mxCell id="Cv7cW8RBHG4uCMVtWFDh-2" value="Nombre" style="ellipse;whiteSpace=wrap;html=1;" parent="1" vertex="1">
          <mxGeometry x="-70" y="150" width="90" height="60" as="geometry" />
        </mxCell>
        <mxCell id="Cv7cW8RBHG4uCMVtWFDh-3" value="Apellido" style="ellipse;whiteSpace=wrap;html=1;" parent="1" vertex="1">
          <mxGeometry x="35" y="150" width="90" height="60" as="geometry" />
        </mxCell>
        <mxCell id="Cv7cW8RBHG4uCMVtWFDh-6" value="Personas" style="rounded=1;whiteSpace=wrap;html=1;" parent="1" vertex="1">
          <mxGeometry x="20" y="40" width="120" height="60" as="geometry" />
        </mxCell>
        <mxCell id="Cv7cW8RBHG4uCMVtWFDh-7" value="Municipios" style="rounded=1;whiteSpace=wrap;html=1;" parent="1" vertex="1">
          <mxGeometry x="695" y="50" width="120" height="60" as="geometry" />
        </mxCell>
        <mxCell id="Cv7cW8RBHG4uCMVtWFDh-8" value="Vivienda" style="rounded=1;whiteSpace=wrap;html=1;" parent="1" vertex="1">
          <mxGeometry x="380" y="40" width="120" height="60" as="geometry" />
        </mxCell>
        <mxCell id="Cv7cW8RBHG4uCMVtWFDh-9" value="" style="endArrow=none;html=1;rounded=0;exitX=0.3;exitY=0.1;exitDx=0;exitDy=0;exitPerimeter=0;" parent="1" target="Cv7cW8RBHG4uCMVtWFDh-6" edge="1">
          <mxGeometry width="50" height="50" relative="1" as="geometry">
            <mxPoint x="162" y="156" as="sourcePoint" />
            <mxPoint x="205" y="100" as="targetPoint" />
          </mxGeometry>
        </mxCell>
        <mxCell id="Cv7cW8RBHG4uCMVtWFDh-10" value="" style="endArrow=none;html=1;rounded=0;entryX=0.375;entryY=0.967;entryDx=0;entryDy=0;entryPerimeter=0;" parent="1" target="Cv7cW8RBHG4uCMVtWFDh-6" edge="1">
          <mxGeometry width="50" height="50" relative="1" as="geometry">
            <mxPoint x="65" y="150" as="sourcePoint" />
            <mxPoint x="115" y="100" as="targetPoint" />
          </mxGeometry>
        </mxCell>
        <mxCell id="Cv7cW8RBHG4uCMVtWFDh-11" value="" style="endArrow=none;html=1;rounded=0;" parent="1" edge="1">
          <mxGeometry width="50" height="50" relative="1" as="geometry">
            <mxPoint x="-15" y="150" as="sourcePoint" />
            <mxPoint x="35" y="100" as="targetPoint" />
          </mxGeometry>
        </mxCell>
        <mxCell id="Cv7cW8RBHG4uCMVtWFDh-12" value="M2 E" style="ellipse;whiteSpace=wrap;html=1;" parent="1" vertex="1">
          <mxGeometry x="500" y="150" width="90" height="60" as="geometry" />
        </mxCell>
        <mxCell id="Cv7cW8RBHG4uCMVtWFDh-13" value="&lt;u&gt;Dirección&lt;/u&gt;" style="ellipse;whiteSpace=wrap;html=1;" parent="1" vertex="1">
          <mxGeometry x="310" y="150" width="90" height="60" as="geometry" />
        </mxCell>
        <mxCell id="Cv7cW8RBHG4uCMVtWFDh-14" value="M2 T" style="ellipse;whiteSpace=wrap;html=1;" parent="1" vertex="1">
          <mxGeometry x="405" y="150" width="90" height="60" as="geometry" />
        </mxCell>
        <mxCell id="Cv7cW8RBHG4uCMVtWFDh-15" value="" style="endArrow=none;html=1;rounded=0;exitX=0.3;exitY=0.1;exitDx=0;exitDy=0;exitPerimeter=0;" parent="1" source="Cv7cW8RBHG4uCMVtWFDh-12" edge="1">
          <mxGeometry width="50" height="50" relative="1" as="geometry">
            <mxPoint x="515" y="150" as="sourcePoint" />
            <mxPoint x="469" y="100" as="targetPoint" />
          </mxGeometry>
        </mxCell>
        <mxCell id="Cv7cW8RBHG4uCMVtWFDh-16" value="" style="endArrow=none;html=1;rounded=0;entryX=0.375;entryY=0.967;entryDx=0;entryDy=0;entryPerimeter=0;" parent="1" edge="1">
          <mxGeometry width="50" height="50" relative="1" as="geometry">
            <mxPoint x="439.5" y="150" as="sourcePoint" />
            <mxPoint x="439.5" y="98" as="targetPoint" />
          </mxGeometry>
        </mxCell>
        <mxCell id="Cv7cW8RBHG4uCMVtWFDh-17" value="" style="endArrow=none;html=1;rounded=0;" parent="1" edge="1">
          <mxGeometry width="50" height="50" relative="1" as="geometry">
            <mxPoint x="345" y="150" as="sourcePoint" />
            <mxPoint x="395" y="100" as="targetPoint" />
          </mxGeometry>
        </mxCell>
        <mxCell id="Cv7cW8RBHG4uCMVtWFDh-18" value="Propietario" style="rhombus;whiteSpace=wrap;html=1;" parent="1" vertex="1">
          <mxGeometry x="220" y="30" width="80" height="80" as="geometry" />
        </mxCell>
        <mxCell id="Cv7cW8RBHG4uCMVtWFDh-19" value="" style="endArrow=none;html=1;rounded=0;entryX=0;entryY=0.5;entryDx=0;entryDy=0;" parent="1" target="Cv7cW8RBHG4uCMVtWFDh-18" edge="1">
          <mxGeometry width="50" height="50" relative="1" as="geometry">
            <mxPoint x="140" y="70" as="sourcePoint" />
            <mxPoint x="190" y="20" as="targetPoint" />
          </mxGeometry>
        </mxCell>
        <mxCell id="Cv7cW8RBHG4uCMVtWFDh-20" value="" style="endArrow=none;html=1;rounded=0;entryX=0;entryY=0.5;entryDx=0;entryDy=0;" parent="1" target="Cv7cW8RBHG4uCMVtWFDh-8" edge="1">
          <mxGeometry width="50" height="50" relative="1" as="geometry">
            <mxPoint x="300" y="70" as="sourcePoint" />
            <mxPoint x="350" y="20" as="targetPoint" />
          </mxGeometry>
        </mxCell>
        <mxCell id="Cv7cW8RBHG4uCMVtWFDh-21" value="&lt;u&gt;Numero&lt;/u&gt;" style="ellipse;whiteSpace=wrap;html=1;" parent="1" vertex="1">
          <mxGeometry x="-180" y="90" width="90" height="60" as="geometry" />
        </mxCell>
        <mxCell id="Cv7cW8RBHG4uCMVtWFDh-22" value="" style="endArrow=none;html=1;rounded=0;entryX=0.767;entryY=0.9;entryDx=0;entryDy=0;entryPerimeter=0;exitX=0.667;exitY=0.067;exitDx=0;exitDy=0;exitPerimeter=0;" parent="1" edge="1">
          <mxGeometry width="50" height="50" relative="1" as="geometry">
            <mxPoint x="-150.00000000000003" y="92.01999999999998" as="sourcePoint" />
            <mxPoint x="-121.00000000000003" y="20" as="targetPoint" />
          </mxGeometry>
        </mxCell>
        <mxCell id="Cv7cW8RBHG4uCMVtWFDh-23" value="&lt;u&gt;Tipo&lt;/u&gt;" style="ellipse;whiteSpace=wrap;html=1;" parent="1" vertex="1">
          <mxGeometry x="-110" y="-150" width="90" height="60" as="geometry" />
        </mxCell>
        <mxCell id="Cv7cW8RBHG4uCMVtWFDh-24" value="&lt;u&gt;Nombre&lt;/u&gt;" style="ellipse;whiteSpace=wrap;html=1;" parent="1" vertex="1">
          <mxGeometry x="630" y="162" width="90" height="60" as="geometry" />
        </mxCell>
        <mxCell id="Cv7cW8RBHG4uCMVtWFDh-25" value="Superficie" style="ellipse;whiteSpace=wrap;html=1;" parent="1" vertex="1">
          <mxGeometry x="725" y="162" width="90" height="60" as="geometry" />
        </mxCell>
        <mxCell id="Cv7cW8RBHG4uCMVtWFDh-26" value="" style="endArrow=none;html=1;rounded=0;exitX=0.3;exitY=0.1;exitDx=0;exitDy=0;exitPerimeter=0;" parent="1" target="Cv7cW8RBHG4uCMVtWFDh-7" edge="1">
          <mxGeometry width="50" height="50" relative="1" as="geometry">
            <mxPoint x="847" y="168" as="sourcePoint" />
            <mxPoint x="789" y="112" as="targetPoint" />
          </mxGeometry>
        </mxCell>
        <mxCell id="Cv7cW8RBHG4uCMVtWFDh-27" value="" style="endArrow=none;html=1;rounded=0;entryX=0.375;entryY=0.967;entryDx=0;entryDy=0;entryPerimeter=0;" parent="1" edge="1">
          <mxGeometry width="50" height="50" relative="1" as="geometry">
            <mxPoint x="759.5" y="162" as="sourcePoint" />
            <mxPoint x="759.5" y="110" as="targetPoint" />
          </mxGeometry>
        </mxCell>
        <mxCell id="Cv7cW8RBHG4uCMVtWFDh-28" value="" style="endArrow=none;html=1;rounded=0;" parent="1" edge="1">
          <mxGeometry width="50" height="50" relative="1" as="geometry">
            <mxPoint x="665" y="162" as="sourcePoint" />
            <mxPoint x="715" y="112" as="targetPoint" />
          </mxGeometry>
        </mxCell>
        <mxCell id="Cv7cW8RBHG4uCMVtWFDh-29" value="Cantidad habitantes" style="ellipse;whiteSpace=wrap;html=1;" parent="1" vertex="1">
          <mxGeometry x="830" y="162" width="90" height="60" as="geometry" />
        </mxCell>
        <mxCell id="Cv7cW8RBHG4uCMVtWFDh-30" value="" style="endArrow=none;html=1;rounded=0;entryX=0;entryY=0.25;entryDx=0;entryDy=0;" parent="1" edge="1">
          <mxGeometry width="50" height="50" relative="1" as="geometry">
            <mxPoint x="-50" y="10" as="sourcePoint" />
            <mxPoint x="20" y="45" as="targetPoint" />
          </mxGeometry>
        </mxCell>
        <mxCell id="Cv7cW8RBHG4uCMVtWFDh-31" value="&lt;u&gt;Id persona&lt;/u&gt;" style="ellipse;whiteSpace=wrap;html=1;" parent="1" vertex="1">
          <mxGeometry x="-40" y="-70" width="90" height="60" as="geometry" />
        </mxCell>
        <mxCell id="Cv7cW8RBHG4uCMVtWFDh-32" value="" style="endArrow=none;html=1;rounded=0;exitX=0.25;exitY=0;exitDx=0;exitDy=0;" parent="1" source="Cv7cW8RBHG4uCMVtWFDh-6" edge="1">
          <mxGeometry width="50" height="50" relative="1" as="geometry">
            <mxPoint x="-30" y="40" as="sourcePoint" />
            <mxPoint x="20" y="-10" as="targetPoint" />
          </mxGeometry>
        </mxCell>
        <mxCell id="Cv7cW8RBHG4uCMVtWFDh-33" value="Pertence" style="rhombus;whiteSpace=wrap;html=1;" parent="1" vertex="1">
          <mxGeometry x="560" y="10" width="80" height="80" as="geometry" />
        </mxCell>
        <mxCell id="Cv7cW8RBHG4uCMVtWFDh-34" value="" style="endArrow=none;html=1;rounded=0;entryX=0;entryY=0.5;entryDx=0;entryDy=0;" parent="1" target="Cv7cW8RBHG4uCMVtWFDh-33" edge="1">
          <mxGeometry width="50" height="50" relative="1" as="geometry">
            <mxPoint x="500" y="70" as="sourcePoint" />
            <mxPoint x="550" y="20" as="targetPoint" />
          </mxGeometry>
        </mxCell>
        <mxCell id="Cv7cW8RBHG4uCMVtWFDh-36" value="" style="endArrow=none;html=1;rounded=0;exitX=0.644;exitY=0.067;exitDx=0;exitDy=0;exitPerimeter=0;" parent="1" source="Cv7cW8RBHG4uCMVtWFDh-13" edge="1">
          <mxGeometry width="50" height="50" relative="1" as="geometry">
            <mxPoint x="380" y="150" as="sourcePoint" />
            <mxPoint x="430" y="100" as="targetPoint" />
          </mxGeometry>
        </mxCell>
        <mxCell id="Cv7cW8RBHG4uCMVtWFDh-37" value="" style="endArrow=none;html=1;rounded=0;entryX=0.042;entryY=0.367;entryDx=0;entryDy=0;entryPerimeter=0;" parent="1" target="Cv7cW8RBHG4uCMVtWFDh-7" edge="1">
          <mxGeometry width="50" height="50" relative="1" as="geometry">
            <mxPoint x="640" y="50" as="sourcePoint" />
            <mxPoint x="690" as="targetPoint" />
          </mxGeometry>
        </mxCell>
        <mxCell id="Cv7cW8RBHG4uCMVtWFDh-38" value="&lt;u&gt;Id vivienda&lt;/u&gt;" style="ellipse;whiteSpace=wrap;html=1;" parent="1" vertex="1">
          <mxGeometry x="315" y="-70" width="90" height="60" as="geometry" />
        </mxCell>
        <mxCell id="Cv7cW8RBHG4uCMVtWFDh-39" value="" style="endArrow=none;html=1;rounded=0;entryX=0.6;entryY=1.033;entryDx=0;entryDy=0;entryPerimeter=0;" parent="1" target="Cv7cW8RBHG4uCMVtWFDh-38" edge="1">
          <mxGeometry width="50" height="50" relative="1" as="geometry">
            <mxPoint x="414" y="40" as="sourcePoint" />
            <mxPoint x="375" y="-4.019999999999982" as="targetPoint" />
          </mxGeometry>
        </mxCell>
        <mxCell id="Cv7cW8RBHG4uCMVtWFDh-40" value="&lt;u&gt;Id municipio&lt;/u&gt;" style="ellipse;whiteSpace=wrap;html=1;" parent="1" vertex="1">
          <mxGeometry x="650" y="-80" width="90" height="60" as="geometry" />
        </mxCell>
        <mxCell id="Cv7cW8RBHG4uCMVtWFDh-41" value="" style="endArrow=none;html=1;rounded=0;entryX=0.6;entryY=1.033;entryDx=0;entryDy=0;entryPerimeter=0;exitX=0.308;exitY=-0.067;exitDx=0;exitDy=0;exitPerimeter=0;" parent="1" source="Cv7cW8RBHG4uCMVtWFDh-7" edge="1">
          <mxGeometry width="50" height="50" relative="1" as="geometry">
            <mxPoint x="740" y="28" as="sourcePoint" />
            <mxPoint x="695" y="-20" as="targetPoint" />
          </mxGeometry>
        </mxCell>
        <mxCell id="Cv7cW8RBHG4uCMVtWFDh-42" value="1" style="rounded=1;whiteSpace=wrap;html=1;" parent="1" vertex="1">
          <mxGeometry x="495" y="10" width="60" height="20" as="geometry" />
        </mxCell>
        <mxCell id="Cv7cW8RBHG4uCMVtWFDh-43" value="1" style="rounded=1;whiteSpace=wrap;html=1;" parent="1" vertex="1">
          <mxGeometry x="645" y="10" width="60" height="20" as="geometry" />
        </mxCell>
        <mxCell id="Cv7cW8RBHG4uCMVtWFDh-44" value="1" style="rounded=1;whiteSpace=wrap;html=1;" parent="1" vertex="1">
          <mxGeometry x="630" y="80" width="60" height="20" as="geometry" />
        </mxCell>
        <mxCell id="Cv7cW8RBHG4uCMVtWFDh-45" value="N" style="rounded=1;whiteSpace=wrap;html=1;arcSize=50;" parent="1" vertex="1">
          <mxGeometry x="510" y="80" width="60" height="20" as="geometry" />
        </mxCell>
        <mxCell id="Cv7cW8RBHG4uCMVtWFDh-46" value="1" style="rounded=1;whiteSpace=wrap;html=1;" parent="1" vertex="1">
          <mxGeometry x="160" y="30" width="60" height="20" as="geometry" />
        </mxCell>
        <mxCell id="Cv7cW8RBHG4uCMVtWFDh-47" value="N" style="rounded=1;whiteSpace=wrap;html=1;arcSize=50;" parent="1" vertex="1">
          <mxGeometry x="310" y="20" width="60" height="20" as="geometry" />
        </mxCell>
        <mxCell id="Cv7cW8RBHG4uCMVtWFDh-48" value="N" style="rounded=1;whiteSpace=wrap;html=1;arcSize=50;" parent="1" vertex="1">
          <mxGeometry x="150" y="90" width="60" height="20" as="geometry" />
        </mxCell>
        <mxCell id="Cv7cW8RBHG4uCMVtWFDh-49" value="1" style="rounded=1;whiteSpace=wrap;html=1;" parent="1" vertex="1">
          <mxGeometry x="315" y="90" width="60" height="20" as="geometry" />
        </mxCell>
        <mxCell id="Cv7cW8RBHG4uCMVtWFDh-50" value="M:N" style="text;html=1;align=center;verticalAlign=middle;resizable=0;points=[];autosize=1;strokeColor=none;fillColor=none;" parent="1" vertex="1">
          <mxGeometry x="195" y="-32" width="50" height="30" as="geometry" />
        </mxCell>
        <mxCell id="Cv7cW8RBHG4uCMVtWFDh-51" value="N:1" style="text;html=1;align=center;verticalAlign=middle;resizable=0;points=[];autosize=1;strokeColor=none;fillColor=none;" parent="1" vertex="1">
          <mxGeometry x="560" y="-32" width="40" height="30" as="geometry" />
        </mxCell>
        <mxCell id="Cv7cW8RBHG4uCMVtWFDh-52" value="Reside" style="rhombus;whiteSpace=wrap;html=1;" parent="1" vertex="1">
          <mxGeometry x="220" y="-190" width="80" height="80" as="geometry" />
        </mxCell>
        <mxCell id="Cv7cW8RBHG4uCMVtWFDh-53" value="" style="endArrow=none;html=1;rounded=0;entryX=0;entryY=1;entryDx=0;entryDy=0;" parent="1" target="Cv7cW8RBHG4uCMVtWFDh-52" edge="1">
          <mxGeometry width="50" height="50" relative="1" as="geometry">
            <mxPoint x="75" y="40" as="sourcePoint" />
            <mxPoint x="125" y="-10" as="targetPoint" />
          </mxGeometry>
        </mxCell>
        <mxCell id="Cv7cW8RBHG4uCMVtWFDh-54" value="" style="endArrow=none;html=1;rounded=0;exitX=1;exitY=0;exitDx=0;exitDy=0;" parent="1" source="Cv7cW8RBHG4uCMVtWFDh-8" edge="1">
          <mxGeometry width="50" height="50" relative="1" as="geometry">
            <mxPoint x="250" y="-100" as="sourcePoint" />
            <mxPoint x="300" y="-150" as="targetPoint" />
          </mxGeometry>
        </mxCell>
        <mxCell id="Cv7cW8RBHG4uCMVtWFDh-55" value="1" style="text;html=1;align=center;verticalAlign=middle;resizable=0;points=[];autosize=1;strokeColor=none;fillColor=none;" parent="1" vertex="1">
          <mxGeometry x="85" y="-55" width="30" height="30" as="geometry" />
        </mxCell>
        <mxCell id="Cv7cW8RBHG4uCMVtWFDh-56" value="1" style="text;html=1;align=center;verticalAlign=middle;resizable=0;points=[];autosize=1;strokeColor=none;fillColor=none;" parent="1" vertex="1">
          <mxGeometry x="450" y="-50" width="30" height="30" as="geometry" />
        </mxCell>
        <mxCell id="Cv7cW8RBHG4uCMVtWFDh-57" value="N" style="text;html=1;align=center;verticalAlign=middle;resizable=0;points=[];autosize=1;strokeColor=none;fillColor=none;" parent="1" vertex="1">
          <mxGeometry x="115" y="5" width="30" height="30" as="geometry" />
        </mxCell>
        <mxCell id="Cv7cW8RBHG4uCMVtWFDh-58" value="1" style="text;html=1;align=center;verticalAlign=middle;resizable=0;points=[];autosize=1;strokeColor=none;fillColor=none;" parent="1" vertex="1">
          <mxGeometry x="420" y="5" width="30" height="30" as="geometry" />
        </mxCell>
        <mxCell id="Cv7cW8RBHG4uCMVtWFDh-60" value="N:1" style="text;html=1;align=center;verticalAlign=middle;resizable=0;points=[];autosize=1;strokeColor=none;fillColor=none;" parent="1" vertex="1">
          <mxGeometry x="30" y="-172" width="40" height="30" as="geometry" />
        </mxCell>
        <mxCell id="Cv7cW8RBHG4uCMVtWFDh-61" value="Personas" style="shape=table;startSize=30;container=1;collapsible=1;childLayout=tableLayout;fixedRows=1;rowLines=0;fontStyle=1;align=center;resizeLast=1;html=1;" parent="1" vertex="1">
          <mxGeometry x="50" y="390" width="180" height="270" as="geometry" />
        </mxCell>
        <mxCell id="Cv7cW8RBHG4uCMVtWFDh-62" value="" style="shape=tableRow;horizontal=0;startSize=0;swimlaneHead=0;swimlaneBody=0;fillColor=none;collapsible=0;dropTarget=0;points=[[0,0.5],[1,0.5]];portConstraint=eastwest;top=0;left=0;right=0;bottom=1;" parent="Cv7cW8RBHG4uCMVtWFDh-61" vertex="1">
          <mxGeometry y="30" width="180" height="30" as="geometry" />
        </mxCell>
        <mxCell id="Cv7cW8RBHG4uCMVtWFDh-63" value="PK" style="shape=partialRectangle;connectable=0;fillColor=none;top=0;left=0;bottom=0;right=0;fontStyle=1;overflow=hidden;whiteSpace=wrap;html=1;" parent="Cv7cW8RBHG4uCMVtWFDh-62" vertex="1">
          <mxGeometry width="30" height="30" as="geometry">
            <mxRectangle width="30" height="30" as="alternateBounds" />
          </mxGeometry>
        </mxCell>
        <mxCell id="Cv7cW8RBHG4uCMVtWFDh-64" value="Id personas" style="shape=partialRectangle;connectable=0;fillColor=none;top=0;left=0;bottom=0;right=0;align=left;spacingLeft=6;fontStyle=5;overflow=hidden;whiteSpace=wrap;html=1;" parent="Cv7cW8RBHG4uCMVtWFDh-62" vertex="1">
          <mxGeometry x="30" width="150" height="30" as="geometry">
            <mxRectangle width="150" height="30" as="alternateBounds" />
          </mxGeometry>
        </mxCell>
        <mxCell id="Cv7cW8RBHG4uCMVtWFDh-116" value="" style="shape=tableRow;horizontal=0;startSize=0;swimlaneHead=0;swimlaneBody=0;fillColor=none;collapsible=0;dropTarget=0;points=[[0,0.5],[1,0.5]];portConstraint=eastwest;top=0;left=0;right=0;bottom=0;" parent="Cv7cW8RBHG4uCMVtWFDh-61" vertex="1">
          <mxGeometry y="60" width="180" height="30" as="geometry" />
        </mxCell>
        <mxCell id="Cv7cW8RBHG4uCMVtWFDh-117" value="" style="shape=partialRectangle;connectable=0;fillColor=none;top=0;left=0;bottom=0;right=0;editable=1;overflow=hidden;" parent="Cv7cW8RBHG4uCMVtWFDh-116" vertex="1">
          <mxGeometry width="30" height="30" as="geometry">
            <mxRectangle width="30" height="30" as="alternateBounds" />
          </mxGeometry>
        </mxCell>
        <mxCell id="Cv7cW8RBHG4uCMVtWFDh-118" value="Documento" style="shape=partialRectangle;connectable=0;fillColor=none;top=0;left=0;bottom=0;right=0;align=left;spacingLeft=6;overflow=hidden;" parent="Cv7cW8RBHG4uCMVtWFDh-116" vertex="1">
          <mxGeometry x="30" width="150" height="30" as="geometry">
            <mxRectangle width="150" height="30" as="alternateBounds" />
          </mxGeometry>
        </mxCell>
        <mxCell id="Cv7cW8RBHG4uCMVtWFDh-120" value="" style="shape=tableRow;horizontal=0;startSize=0;swimlaneHead=0;swimlaneBody=0;fillColor=none;collapsible=0;dropTarget=0;points=[[0,0.5],[1,0.5]];portConstraint=eastwest;top=0;left=0;right=0;bottom=0;" parent="Cv7cW8RBHG4uCMVtWFDh-61" vertex="1">
          <mxGeometry y="90" width="180" height="30" as="geometry" />
        </mxCell>
        <mxCell id="Cv7cW8RBHG4uCMVtWFDh-121" value="" style="shape=partialRectangle;connectable=0;fillColor=none;top=0;left=0;bottom=0;right=0;editable=1;overflow=hidden;" parent="Cv7cW8RBHG4uCMVtWFDh-120" vertex="1">
          <mxGeometry width="30" height="30" as="geometry">
            <mxRectangle width="30" height="30" as="alternateBounds" />
          </mxGeometry>
        </mxCell>
        <mxCell id="Cv7cW8RBHG4uCMVtWFDh-122" value="Tipo" style="shape=partialRectangle;connectable=0;fillColor=none;top=0;left=0;bottom=0;right=0;align=left;spacingLeft=6;overflow=hidden;" parent="Cv7cW8RBHG4uCMVtWFDh-120" vertex="1">
          <mxGeometry x="30" width="150" height="30" as="geometry">
            <mxRectangle width="150" height="30" as="alternateBounds" />
          </mxGeometry>
        </mxCell>
        <mxCell id="Cv7cW8RBHG4uCMVtWFDh-124" value="" style="shape=tableRow;horizontal=0;startSize=0;swimlaneHead=0;swimlaneBody=0;fillColor=none;collapsible=0;dropTarget=0;points=[[0,0.5],[1,0.5]];portConstraint=eastwest;top=0;left=0;right=0;bottom=0;" parent="Cv7cW8RBHG4uCMVtWFDh-61" vertex="1">
          <mxGeometry y="120" width="180" height="30" as="geometry" />
        </mxCell>
        <mxCell id="Cv7cW8RBHG4uCMVtWFDh-125" value="" style="shape=partialRectangle;connectable=0;fillColor=none;top=0;left=0;bottom=0;right=0;editable=1;overflow=hidden;" parent="Cv7cW8RBHG4uCMVtWFDh-124" vertex="1">
          <mxGeometry width="30" height="30" as="geometry">
            <mxRectangle width="30" height="30" as="alternateBounds" />
          </mxGeometry>
        </mxCell>
        <mxCell id="Cv7cW8RBHG4uCMVtWFDh-126" value="Numero" style="shape=partialRectangle;connectable=0;fillColor=none;top=0;left=0;bottom=0;right=0;align=left;spacingLeft=6;overflow=hidden;" parent="Cv7cW8RBHG4uCMVtWFDh-124" vertex="1">
          <mxGeometry x="30" width="150" height="30" as="geometry">
            <mxRectangle width="150" height="30" as="alternateBounds" />
          </mxGeometry>
        </mxCell>
        <mxCell id="Cv7cW8RBHG4uCMVtWFDh-65" value="" style="shape=tableRow;horizontal=0;startSize=0;swimlaneHead=0;swimlaneBody=0;fillColor=none;collapsible=0;dropTarget=0;points=[[0,0.5],[1,0.5]];portConstraint=eastwest;top=0;left=0;right=0;bottom=0;" parent="Cv7cW8RBHG4uCMVtWFDh-61" vertex="1">
          <mxGeometry y="150" width="180" height="30" as="geometry" />
        </mxCell>
        <mxCell id="Cv7cW8RBHG4uCMVtWFDh-66" value="" style="shape=partialRectangle;connectable=0;fillColor=none;top=0;left=0;bottom=0;right=0;editable=1;overflow=hidden;whiteSpace=wrap;html=1;" parent="Cv7cW8RBHG4uCMVtWFDh-65" vertex="1">
          <mxGeometry width="30" height="30" as="geometry">
            <mxRectangle width="30" height="30" as="alternateBounds" />
          </mxGeometry>
        </mxCell>
        <mxCell id="Cv7cW8RBHG4uCMVtWFDh-67" value="&lt;span style=&quot;text-align: center;&quot;&gt;Nombre&lt;/span&gt;" style="shape=partialRectangle;connectable=0;fillColor=none;top=0;left=0;bottom=0;right=0;align=left;spacingLeft=6;overflow=hidden;whiteSpace=wrap;html=1;" parent="Cv7cW8RBHG4uCMVtWFDh-65" vertex="1">
          <mxGeometry x="30" width="150" height="30" as="geometry">
            <mxRectangle width="150" height="30" as="alternateBounds" />
          </mxGeometry>
        </mxCell>
        <mxCell id="Cv7cW8RBHG4uCMVtWFDh-68" value="" style="shape=tableRow;horizontal=0;startSize=0;swimlaneHead=0;swimlaneBody=0;fillColor=none;collapsible=0;dropTarget=0;points=[[0,0.5],[1,0.5]];portConstraint=eastwest;top=0;left=0;right=0;bottom=0;" parent="Cv7cW8RBHG4uCMVtWFDh-61" vertex="1">
          <mxGeometry y="180" width="180" height="30" as="geometry" />
        </mxCell>
        <mxCell id="Cv7cW8RBHG4uCMVtWFDh-69" value="" style="shape=partialRectangle;connectable=0;fillColor=none;top=0;left=0;bottom=0;right=0;editable=1;overflow=hidden;whiteSpace=wrap;html=1;" parent="Cv7cW8RBHG4uCMVtWFDh-68" vertex="1">
          <mxGeometry width="30" height="30" as="geometry">
            <mxRectangle width="30" height="30" as="alternateBounds" />
          </mxGeometry>
        </mxCell>
        <mxCell id="Cv7cW8RBHG4uCMVtWFDh-70" value="&lt;span style=&quot;text-align: center;&quot;&gt;Apellido&lt;/span&gt;" style="shape=partialRectangle;connectable=0;fillColor=none;top=0;left=0;bottom=0;right=0;align=left;spacingLeft=6;overflow=hidden;whiteSpace=wrap;html=1;" parent="Cv7cW8RBHG4uCMVtWFDh-68" vertex="1">
          <mxGeometry x="30" width="150" height="30" as="geometry">
            <mxRectangle width="150" height="30" as="alternateBounds" />
          </mxGeometry>
        </mxCell>
        <mxCell id="Cv7cW8RBHG4uCMVtWFDh-71" value="" style="shape=tableRow;horizontal=0;startSize=0;swimlaneHead=0;swimlaneBody=0;fillColor=none;collapsible=0;dropTarget=0;points=[[0,0.5],[1,0.5]];portConstraint=eastwest;top=0;left=0;right=0;bottom=0;" parent="Cv7cW8RBHG4uCMVtWFDh-61" vertex="1">
          <mxGeometry y="210" width="180" height="30" as="geometry" />
        </mxCell>
        <mxCell id="Cv7cW8RBHG4uCMVtWFDh-72" value="" style="shape=partialRectangle;connectable=0;fillColor=none;top=0;left=0;bottom=0;right=0;editable=1;overflow=hidden;whiteSpace=wrap;html=1;" parent="Cv7cW8RBHG4uCMVtWFDh-71" vertex="1">
          <mxGeometry width="30" height="30" as="geometry">
            <mxRectangle width="30" height="30" as="alternateBounds" />
          </mxGeometry>
        </mxCell>
        <mxCell id="Cv7cW8RBHG4uCMVtWFDh-73" value="&lt;span style=&quot;text-align: center;&quot;&gt;Fecha de nacimiento&lt;/span&gt;" style="shape=partialRectangle;connectable=0;fillColor=none;top=0;left=0;bottom=0;right=0;align=left;spacingLeft=6;overflow=hidden;whiteSpace=wrap;html=1;" parent="Cv7cW8RBHG4uCMVtWFDh-71" vertex="1">
          <mxGeometry x="30" width="150" height="30" as="geometry">
            <mxRectangle width="150" height="30" as="alternateBounds" />
          </mxGeometry>
        </mxCell>
        <mxCell id="Cv7cW8RBHG4uCMVtWFDh-137" value="" style="shape=tableRow;horizontal=0;startSize=0;swimlaneHead=0;swimlaneBody=0;fillColor=none;collapsible=0;dropTarget=0;points=[[0,0.5],[1,0.5]];portConstraint=eastwest;top=0;left=0;right=0;bottom=0;" parent="Cv7cW8RBHG4uCMVtWFDh-61" vertex="1">
          <mxGeometry y="240" width="180" height="30" as="geometry" />
        </mxCell>
        <mxCell id="Cv7cW8RBHG4uCMVtWFDh-138" value="FK" style="shape=partialRectangle;connectable=0;fillColor=none;top=0;left=0;bottom=0;right=0;fontStyle=0;overflow=hidden;whiteSpace=wrap;html=1;" parent="Cv7cW8RBHG4uCMVtWFDh-137" vertex="1">
          <mxGeometry width="30" height="30" as="geometry">
            <mxRectangle width="30" height="30" as="alternateBounds" />
          </mxGeometry>
        </mxCell>
        <mxCell id="Cv7cW8RBHG4uCMVtWFDh-139" value="&lt;u&gt;Id vivienda&lt;/u&gt;" style="shape=partialRectangle;connectable=0;fillColor=none;top=0;left=0;bottom=0;right=0;align=left;spacingLeft=6;fontStyle=0;overflow=hidden;whiteSpace=wrap;html=1;" parent="Cv7cW8RBHG4uCMVtWFDh-137" vertex="1">
          <mxGeometry x="30" width="150" height="30" as="geometry">
            <mxRectangle width="150" height="30" as="alternateBounds" />
          </mxGeometry>
        </mxCell>
        <mxCell id="Cv7cW8RBHG4uCMVtWFDh-74" value="Viviendas" style="shape=table;startSize=30;container=1;collapsible=1;childLayout=tableLayout;fixedRows=1;rowLines=0;fontStyle=1;align=center;resizeLast=1;html=1;" parent="1" vertex="1">
          <mxGeometry x="330" y="390" width="180" height="180" as="geometry" />
        </mxCell>
        <mxCell id="Cv7cW8RBHG4uCMVtWFDh-75" value="" style="shape=tableRow;horizontal=0;startSize=0;swimlaneHead=0;swimlaneBody=0;fillColor=none;collapsible=0;dropTarget=0;points=[[0,0.5],[1,0.5]];portConstraint=eastwest;top=0;left=0;right=0;bottom=1;" parent="Cv7cW8RBHG4uCMVtWFDh-74" vertex="1">
          <mxGeometry y="30" width="180" height="30" as="geometry" />
        </mxCell>
        <mxCell id="Cv7cW8RBHG4uCMVtWFDh-76" value="PK" style="shape=partialRectangle;connectable=0;fillColor=none;top=0;left=0;bottom=0;right=0;fontStyle=1;overflow=hidden;whiteSpace=wrap;html=1;" parent="Cv7cW8RBHG4uCMVtWFDh-75" vertex="1">
          <mxGeometry width="30" height="30" as="geometry">
            <mxRectangle width="30" height="30" as="alternateBounds" />
          </mxGeometry>
        </mxCell>
        <mxCell id="Cv7cW8RBHG4uCMVtWFDh-77" value="&lt;u style=&quot;font-weight: 400; text-align: center;&quot;&gt;Id vivienda&lt;/u&gt;" style="shape=partialRectangle;connectable=0;fillColor=none;top=0;left=0;bottom=0;right=0;align=left;spacingLeft=6;fontStyle=5;overflow=hidden;whiteSpace=wrap;html=1;" parent="Cv7cW8RBHG4uCMVtWFDh-75" vertex="1">
          <mxGeometry x="30" width="150" height="30" as="geometry">
            <mxRectangle width="150" height="30" as="alternateBounds" />
          </mxGeometry>
        </mxCell>
        <mxCell id="Cv7cW8RBHG4uCMVtWFDh-78" value="" style="shape=tableRow;horizontal=0;startSize=0;swimlaneHead=0;swimlaneBody=0;fillColor=none;collapsible=0;dropTarget=0;points=[[0,0.5],[1,0.5]];portConstraint=eastwest;top=0;left=0;right=0;bottom=0;" parent="Cv7cW8RBHG4uCMVtWFDh-74" vertex="1">
          <mxGeometry y="60" width="180" height="30" as="geometry" />
        </mxCell>
        <mxCell id="Cv7cW8RBHG4uCMVtWFDh-79" value="" style="shape=partialRectangle;connectable=0;fillColor=none;top=0;left=0;bottom=0;right=0;editable=1;overflow=hidden;whiteSpace=wrap;html=1;" parent="Cv7cW8RBHG4uCMVtWFDh-78" vertex="1">
          <mxGeometry width="30" height="30" as="geometry">
            <mxRectangle width="30" height="30" as="alternateBounds" />
          </mxGeometry>
        </mxCell>
        <mxCell id="Cv7cW8RBHG4uCMVtWFDh-80" value="&lt;span style=&quot;text-align: center;&quot;&gt;Dirección&lt;/span&gt;" style="shape=partialRectangle;connectable=0;fillColor=none;top=0;left=0;bottom=0;right=0;align=left;spacingLeft=6;overflow=hidden;whiteSpace=wrap;html=1;" parent="Cv7cW8RBHG4uCMVtWFDh-78" vertex="1">
          <mxGeometry x="30" width="150" height="30" as="geometry">
            <mxRectangle width="150" height="30" as="alternateBounds" />
          </mxGeometry>
        </mxCell>
        <mxCell id="Cv7cW8RBHG4uCMVtWFDh-81" value="" style="shape=tableRow;horizontal=0;startSize=0;swimlaneHead=0;swimlaneBody=0;fillColor=none;collapsible=0;dropTarget=0;points=[[0,0.5],[1,0.5]];portConstraint=eastwest;top=0;left=0;right=0;bottom=0;" parent="Cv7cW8RBHG4uCMVtWFDh-74" vertex="1">
          <mxGeometry y="90" width="180" height="30" as="geometry" />
        </mxCell>
        <mxCell id="Cv7cW8RBHG4uCMVtWFDh-82" value="" style="shape=partialRectangle;connectable=0;fillColor=none;top=0;left=0;bottom=0;right=0;editable=1;overflow=hidden;whiteSpace=wrap;html=1;" parent="Cv7cW8RBHG4uCMVtWFDh-81" vertex="1">
          <mxGeometry width="30" height="30" as="geometry">
            <mxRectangle width="30" height="30" as="alternateBounds" />
          </mxGeometry>
        </mxCell>
        <mxCell id="Cv7cW8RBHG4uCMVtWFDh-83" value="&lt;span style=&quot;text-align: center;&quot;&gt;M2 T&lt;/span&gt;" style="shape=partialRectangle;connectable=0;fillColor=none;top=0;left=0;bottom=0;right=0;align=left;spacingLeft=6;overflow=hidden;whiteSpace=wrap;html=1;" parent="Cv7cW8RBHG4uCMVtWFDh-81" vertex="1">
          <mxGeometry x="30" width="150" height="30" as="geometry">
            <mxRectangle width="150" height="30" as="alternateBounds" />
          </mxGeometry>
        </mxCell>
        <mxCell id="Cv7cW8RBHG4uCMVtWFDh-84" value="" style="shape=tableRow;horizontal=0;startSize=0;swimlaneHead=0;swimlaneBody=0;fillColor=none;collapsible=0;dropTarget=0;points=[[0,0.5],[1,0.5]];portConstraint=eastwest;top=0;left=0;right=0;bottom=0;" parent="Cv7cW8RBHG4uCMVtWFDh-74" vertex="1">
          <mxGeometry y="120" width="180" height="30" as="geometry" />
        </mxCell>
        <mxCell id="Cv7cW8RBHG4uCMVtWFDh-85" value="" style="shape=partialRectangle;connectable=0;fillColor=none;top=0;left=0;bottom=0;right=0;editable=1;overflow=hidden;whiteSpace=wrap;html=1;" parent="Cv7cW8RBHG4uCMVtWFDh-84" vertex="1">
          <mxGeometry width="30" height="30" as="geometry">
            <mxRectangle width="30" height="30" as="alternateBounds" />
          </mxGeometry>
        </mxCell>
        <mxCell id="Cv7cW8RBHG4uCMVtWFDh-86" value="&lt;span style=&quot;text-align: center;&quot;&gt;M2 E&lt;/span&gt;" style="shape=partialRectangle;connectable=0;fillColor=none;top=0;left=0;bottom=0;right=0;align=left;spacingLeft=6;overflow=hidden;whiteSpace=wrap;html=1;" parent="Cv7cW8RBHG4uCMVtWFDh-84" vertex="1">
          <mxGeometry x="30" width="150" height="30" as="geometry">
            <mxRectangle width="150" height="30" as="alternateBounds" />
          </mxGeometry>
        </mxCell>
        <mxCell id="Cv7cW8RBHG4uCMVtWFDh-128" value="" style="shape=tableRow;horizontal=0;startSize=0;swimlaneHead=0;swimlaneBody=0;fillColor=none;collapsible=0;dropTarget=0;points=[[0,0.5],[1,0.5]];portConstraint=eastwest;top=0;left=0;right=0;bottom=0;" parent="Cv7cW8RBHG4uCMVtWFDh-74" vertex="1">
          <mxGeometry y="150" width="180" height="30" as="geometry" />
        </mxCell>
        <mxCell id="Cv7cW8RBHG4uCMVtWFDh-129" value="FK" style="shape=partialRectangle;connectable=0;fillColor=none;top=0;left=0;bottom=0;right=0;fontStyle=0;overflow=hidden;whiteSpace=wrap;html=1;" parent="Cv7cW8RBHG4uCMVtWFDh-128" vertex="1">
          <mxGeometry width="30" height="30" as="geometry">
            <mxRectangle width="30" height="30" as="alternateBounds" />
          </mxGeometry>
        </mxCell>
        <mxCell id="Cv7cW8RBHG4uCMVtWFDh-130" value="&lt;u&gt;Id municipios&lt;/u&gt;" style="shape=partialRectangle;connectable=0;fillColor=none;top=0;left=0;bottom=0;right=0;align=left;spacingLeft=6;fontStyle=0;overflow=hidden;whiteSpace=wrap;html=1;" parent="Cv7cW8RBHG4uCMVtWFDh-128" vertex="1">
          <mxGeometry x="30" width="150" height="30" as="geometry">
            <mxRectangle width="150" height="30" as="alternateBounds" />
          </mxGeometry>
        </mxCell>
        <mxCell id="Cv7cW8RBHG4uCMVtWFDh-87" value="Municipios" style="shape=table;startSize=30;container=1;collapsible=1;childLayout=tableLayout;fixedRows=1;rowLines=0;fontStyle=1;align=center;resizeLast=1;html=1;" parent="1" vertex="1">
          <mxGeometry x="590" y="390" width="180" height="150" as="geometry" />
        </mxCell>
        <mxCell id="Cv7cW8RBHG4uCMVtWFDh-88" value="" style="shape=tableRow;horizontal=0;startSize=0;swimlaneHead=0;swimlaneBody=0;fillColor=none;collapsible=0;dropTarget=0;points=[[0,0.5],[1,0.5]];portConstraint=eastwest;top=0;left=0;right=0;bottom=1;" parent="Cv7cW8RBHG4uCMVtWFDh-87" vertex="1">
          <mxGeometry y="30" width="180" height="30" as="geometry" />
        </mxCell>
        <mxCell id="Cv7cW8RBHG4uCMVtWFDh-89" value="PK" style="shape=partialRectangle;connectable=0;fillColor=none;top=0;left=0;bottom=0;right=0;fontStyle=1;overflow=hidden;whiteSpace=wrap;html=1;" parent="Cv7cW8RBHG4uCMVtWFDh-88" vertex="1">
          <mxGeometry width="30" height="30" as="geometry">
            <mxRectangle width="30" height="30" as="alternateBounds" />
          </mxGeometry>
        </mxCell>
        <mxCell id="Cv7cW8RBHG4uCMVtWFDh-90" value="&lt;u style=&quot;font-weight: 400; text-align: center;&quot;&gt;Id municipio&lt;/u&gt;" style="shape=partialRectangle;connectable=0;fillColor=none;top=0;left=0;bottom=0;right=0;align=left;spacingLeft=6;fontStyle=5;overflow=hidden;whiteSpace=wrap;html=1;" parent="Cv7cW8RBHG4uCMVtWFDh-88" vertex="1">
          <mxGeometry x="30" width="150" height="30" as="geometry">
            <mxRectangle width="150" height="30" as="alternateBounds" />
          </mxGeometry>
        </mxCell>
        <mxCell id="Cv7cW8RBHG4uCMVtWFDh-91" value="" style="shape=tableRow;horizontal=0;startSize=0;swimlaneHead=0;swimlaneBody=0;fillColor=none;collapsible=0;dropTarget=0;points=[[0,0.5],[1,0.5]];portConstraint=eastwest;top=0;left=0;right=0;bottom=0;" parent="Cv7cW8RBHG4uCMVtWFDh-87" vertex="1">
          <mxGeometry y="60" width="180" height="30" as="geometry" />
        </mxCell>
        <mxCell id="Cv7cW8RBHG4uCMVtWFDh-92" value="" style="shape=partialRectangle;connectable=0;fillColor=none;top=0;left=0;bottom=0;right=0;editable=1;overflow=hidden;whiteSpace=wrap;html=1;" parent="Cv7cW8RBHG4uCMVtWFDh-91" vertex="1">
          <mxGeometry width="30" height="30" as="geometry">
            <mxRectangle width="30" height="30" as="alternateBounds" />
          </mxGeometry>
        </mxCell>
        <mxCell id="Cv7cW8RBHG4uCMVtWFDh-93" value="&lt;span style=&quot;text-align: center;&quot;&gt;Nombre&lt;/span&gt;" style="shape=partialRectangle;connectable=0;fillColor=none;top=0;left=0;bottom=0;right=0;align=left;spacingLeft=6;overflow=hidden;whiteSpace=wrap;html=1;" parent="Cv7cW8RBHG4uCMVtWFDh-91" vertex="1">
          <mxGeometry x="30" width="150" height="30" as="geometry">
            <mxRectangle width="150" height="30" as="alternateBounds" />
          </mxGeometry>
        </mxCell>
        <mxCell id="Cv7cW8RBHG4uCMVtWFDh-94" value="" style="shape=tableRow;horizontal=0;startSize=0;swimlaneHead=0;swimlaneBody=0;fillColor=none;collapsible=0;dropTarget=0;points=[[0,0.5],[1,0.5]];portConstraint=eastwest;top=0;left=0;right=0;bottom=0;" parent="Cv7cW8RBHG4uCMVtWFDh-87" vertex="1">
          <mxGeometry y="90" width="180" height="30" as="geometry" />
        </mxCell>
        <mxCell id="Cv7cW8RBHG4uCMVtWFDh-95" value="" style="shape=partialRectangle;connectable=0;fillColor=none;top=0;left=0;bottom=0;right=0;editable=1;overflow=hidden;whiteSpace=wrap;html=1;" parent="Cv7cW8RBHG4uCMVtWFDh-94" vertex="1">
          <mxGeometry width="30" height="30" as="geometry">
            <mxRectangle width="30" height="30" as="alternateBounds" />
          </mxGeometry>
        </mxCell>
        <mxCell id="Cv7cW8RBHG4uCMVtWFDh-96" value="&lt;span style=&quot;text-align: center;&quot;&gt;Cantidad habitantes&lt;/span&gt;" style="shape=partialRectangle;connectable=0;fillColor=none;top=0;left=0;bottom=0;right=0;align=left;spacingLeft=6;overflow=hidden;whiteSpace=wrap;html=1;" parent="Cv7cW8RBHG4uCMVtWFDh-94" vertex="1">
          <mxGeometry x="30" width="150" height="30" as="geometry">
            <mxRectangle width="150" height="30" as="alternateBounds" />
          </mxGeometry>
        </mxCell>
        <mxCell id="Cv7cW8RBHG4uCMVtWFDh-97" value="" style="shape=tableRow;horizontal=0;startSize=0;swimlaneHead=0;swimlaneBody=0;fillColor=none;collapsible=0;dropTarget=0;points=[[0,0.5],[1,0.5]];portConstraint=eastwest;top=0;left=0;right=0;bottom=0;" parent="Cv7cW8RBHG4uCMVtWFDh-87" vertex="1">
          <mxGeometry y="120" width="180" height="30" as="geometry" />
        </mxCell>
        <mxCell id="Cv7cW8RBHG4uCMVtWFDh-98" value="" style="shape=partialRectangle;connectable=0;fillColor=none;top=0;left=0;bottom=0;right=0;editable=1;overflow=hidden;whiteSpace=wrap;html=1;" parent="Cv7cW8RBHG4uCMVtWFDh-97" vertex="1">
          <mxGeometry width="30" height="30" as="geometry">
            <mxRectangle width="30" height="30" as="alternateBounds" />
          </mxGeometry>
        </mxCell>
        <mxCell id="Cv7cW8RBHG4uCMVtWFDh-99" value="&lt;span style=&quot;text-align: center;&quot;&gt;Superficie&lt;/span&gt;" style="shape=partialRectangle;connectable=0;fillColor=none;top=0;left=0;bottom=0;right=0;align=left;spacingLeft=6;overflow=hidden;whiteSpace=wrap;html=1;" parent="Cv7cW8RBHG4uCMVtWFDh-97" vertex="1">
          <mxGeometry x="30" width="150" height="30" as="geometry">
            <mxRectangle width="150" height="30" as="alternateBounds" />
          </mxGeometry>
        </mxCell>
        <mxCell id="Cv7cW8RBHG4uCMVtWFDh-104" value="Documento" style="ellipse;whiteSpace=wrap;html=1;" parent="1" vertex="1">
          <mxGeometry x="-130" y="-32" width="90" height="60" as="geometry" />
        </mxCell>
        <mxCell id="Cv7cW8RBHG4uCMVtWFDh-105" value="" style="endArrow=none;html=1;rounded=0;exitX=0;exitY=0;exitDx=0;exitDy=0;" parent="1" source="Cv7cW8RBHG4uCMVtWFDh-104" edge="1">
          <mxGeometry width="50" height="50" relative="1" as="geometry">
            <mxPoint x="-120" y="-40" as="sourcePoint" />
            <mxPoint x="-70" y="-90" as="targetPoint" />
          </mxGeometry>
        </mxCell>
        <mxCell id="Cv7cW8RBHG4uCMVtWFDh-131" value="" style="edgeStyle=entityRelationEdgeStyle;fontSize=12;html=1;endArrow=ERoneToMany;rounded=0;entryX=1;entryY=0.5;entryDx=0;entryDy=0;exitX=0;exitY=0.5;exitDx=0;exitDy=0;" parent="1" source="Cv7cW8RBHG4uCMVtWFDh-88" target="Cv7cW8RBHG4uCMVtWFDh-128" edge="1">
          <mxGeometry width="100" height="100" relative="1" as="geometry">
            <mxPoint x="550" y="670" as="sourcePoint" />
            <mxPoint x="650" y="570" as="targetPoint" />
          </mxGeometry>
        </mxCell>
        <mxCell id="Cv7cW8RBHG4uCMVtWFDh-140" value="" style="edgeStyle=entityRelationEdgeStyle;fontSize=12;html=1;endArrow=ERoneToMany;rounded=0;exitX=0;exitY=0.5;exitDx=0;exitDy=0;entryX=1;entryY=0.5;entryDx=0;entryDy=0;" parent="1" source="Cv7cW8RBHG4uCMVtWFDh-75" target="Cv7cW8RBHG4uCMVtWFDh-137" edge="1">
          <mxGeometry width="100" height="100" relative="1" as="geometry">
            <mxPoint x="285" y="740" as="sourcePoint" />
            <mxPoint x="385" y="640" as="targetPoint" />
          </mxGeometry>
        </mxCell>
        <mxCell id="Cv7cW8RBHG4uCMVtWFDh-141" value="Propietarios" style="shape=table;startSize=30;container=1;collapsible=1;childLayout=tableLayout;fixedRows=1;rowLines=0;fontStyle=1;align=center;resizeLast=1;html=1;" parent="1" vertex="1">
          <mxGeometry x="315" y="260" width="180" height="90" as="geometry" />
        </mxCell>
        <mxCell id="Cv7cW8RBHG4uCMVtWFDh-154" value="" style="shape=tableRow;horizontal=0;startSize=0;swimlaneHead=0;swimlaneBody=0;fillColor=none;collapsible=0;dropTarget=0;points=[[0,0.5],[1,0.5]];portConstraint=eastwest;top=0;left=0;right=0;bottom=0;" parent="Cv7cW8RBHG4uCMVtWFDh-141" vertex="1">
          <mxGeometry y="30" width="180" height="30" as="geometry" />
        </mxCell>
        <mxCell id="Cv7cW8RBHG4uCMVtWFDh-155" value="FK" style="shape=partialRectangle;connectable=0;fillColor=none;top=0;left=0;bottom=0;right=0;fontStyle=0;overflow=hidden;whiteSpace=wrap;html=1;" parent="Cv7cW8RBHG4uCMVtWFDh-154" vertex="1">
          <mxGeometry width="30" height="30" as="geometry">
            <mxRectangle width="30" height="30" as="alternateBounds" />
          </mxGeometry>
        </mxCell>
        <mxCell id="Cv7cW8RBHG4uCMVtWFDh-156" value="&lt;u&gt;Id viviendas&lt;/u&gt;" style="shape=partialRectangle;connectable=0;fillColor=none;top=0;left=0;bottom=0;right=0;align=left;spacingLeft=6;fontStyle=0;overflow=hidden;whiteSpace=wrap;html=1;" parent="Cv7cW8RBHG4uCMVtWFDh-154" vertex="1">
          <mxGeometry x="30" width="150" height="30" as="geometry">
            <mxRectangle width="150" height="30" as="alternateBounds" />
          </mxGeometry>
        </mxCell>
        <mxCell id="Cv7cW8RBHG4uCMVtWFDh-158" value="" style="shape=tableRow;horizontal=0;startSize=0;swimlaneHead=0;swimlaneBody=0;fillColor=none;collapsible=0;dropTarget=0;points=[[0,0.5],[1,0.5]];portConstraint=eastwest;top=0;left=0;right=0;bottom=0;" parent="Cv7cW8RBHG4uCMVtWFDh-141" vertex="1">
          <mxGeometry y="60" width="180" height="30" as="geometry" />
        </mxCell>
        <mxCell id="Cv7cW8RBHG4uCMVtWFDh-159" value="FK" style="shape=partialRectangle;connectable=0;fillColor=none;top=0;left=0;bottom=0;right=0;fontStyle=0;overflow=hidden;whiteSpace=wrap;html=1;" parent="Cv7cW8RBHG4uCMVtWFDh-158" vertex="1">
          <mxGeometry width="30" height="30" as="geometry">
            <mxRectangle width="30" height="30" as="alternateBounds" />
          </mxGeometry>
        </mxCell>
        <mxCell id="Cv7cW8RBHG4uCMVtWFDh-160" value="&lt;u&gt;Id personas&lt;/u&gt;" style="shape=partialRectangle;connectable=0;fillColor=none;top=0;left=0;bottom=0;right=0;align=left;spacingLeft=6;fontStyle=0;overflow=hidden;whiteSpace=wrap;html=1;" parent="Cv7cW8RBHG4uCMVtWFDh-158" vertex="1">
          <mxGeometry x="30" width="150" height="30" as="geometry">
            <mxRectangle width="150" height="30" as="alternateBounds" />
          </mxGeometry>
        </mxCell>
        <mxCell id="Cv7cW8RBHG4uCMVtWFDh-161" value="" style="edgeStyle=entityRelationEdgeStyle;fontSize=12;html=1;endArrow=ERoneToMany;rounded=0;entryX=0;entryY=0.5;entryDx=0;entryDy=0;" parent="1" target="Cv7cW8RBHG4uCMVtWFDh-158" edge="1">
          <mxGeometry width="100" height="100" relative="1" as="geometry">
            <mxPoint x="230" y="440" as="sourcePoint" />
            <mxPoint x="-145" y="650" as="targetPoint" />
          </mxGeometry>
        </mxCell>
        <mxCell id="Cv7cW8RBHG4uCMVtWFDh-163" value="" style="edgeStyle=entityRelationEdgeStyle;fontSize=12;html=1;endArrow=ERoneToMany;rounded=0;exitX=1;exitY=0.5;exitDx=0;exitDy=0;" parent="1" target="Cv7cW8RBHG4uCMVtWFDh-75" edge="1" source="Cv7cW8RBHG4uCMVtWFDh-154">
          <mxGeometry width="100" height="100" relative="1" as="geometry">
            <mxPoint x="592.5" y="379.99" as="sourcePoint" />
            <mxPoint x="577.5" y="250" as="targetPoint" />
          </mxGeometry>
        </mxCell>
      </root>
    </mxGraphModel>
  </diagram>
</mxfile>
